<mxfile host="app.diagrams.net" modified="2024-08-09T05:45:46.797Z" agent="Mozilla/5.0 (X11; Linux x86_64; rv:129.0) Gecko/20100101 Firefox/129.0" etag="TBgrdti6YdjbAAd7Moj3" version="24.6.5" type="device" pages="2">
  <diagram id="3bA0t2rNv5cY0KKLpGE2" name="uml_casi">
    <mxGraphModel dx="2578" dy="1614" grid="1" gridSize="10" guides="1" tooltips="1" connect="1" arrows="1" fold="1" page="1" pageScale="1" pageWidth="827" pageHeight="1169" math="0" shadow="0">
      <root>
        <mxCell id="0" />
        <mxCell id="1" parent="0" />
        <mxCell id="NnZkYz84_o2CHcAnaiLh-55" value="" style="rounded=1;whiteSpace=wrap;html=1;fontFamily=Helvetica;fontSize=11;fontColor=default;labelBackgroundColor=default;arcSize=1;" vertex="1" parent="1">
          <mxGeometry x="-45" y="160" width="905" height="1020" as="geometry" />
        </mxCell>
        <mxCell id="NnZkYz84_o2CHcAnaiLh-37" style="rounded=0;orthogonalLoop=1;jettySize=auto;html=1;entryX=0.5;entryY=1;entryDx=0;entryDy=0;endArrow=none;endFill=0;" edge="1" parent="1" source="NnZkYz84_o2CHcAnaiLh-1" target="NnZkYz84_o2CHcAnaiLh-12">
          <mxGeometry relative="1" as="geometry" />
        </mxCell>
        <mxCell id="NnZkYz84_o2CHcAnaiLh-38" style="edgeStyle=none;shape=connector;rounded=0;orthogonalLoop=1;jettySize=auto;html=1;entryX=0;entryY=1;entryDx=0;entryDy=0;strokeColor=default;align=center;verticalAlign=middle;fontFamily=Helvetica;fontSize=11;fontColor=default;labelBackgroundColor=default;endArrow=none;endFill=0;" edge="1" parent="1" source="NnZkYz84_o2CHcAnaiLh-1" target="NnZkYz84_o2CHcAnaiLh-9">
          <mxGeometry relative="1" as="geometry" />
        </mxCell>
        <mxCell id="NnZkYz84_o2CHcAnaiLh-40" style="edgeStyle=none;shape=connector;rounded=0;orthogonalLoop=1;jettySize=auto;html=1;entryX=0;entryY=0.5;entryDx=0;entryDy=0;strokeColor=default;align=center;verticalAlign=middle;fontFamily=Helvetica;fontSize=11;fontColor=default;labelBackgroundColor=default;endArrow=none;endFill=0;" edge="1" parent="1" source="NnZkYz84_o2CHcAnaiLh-1" target="NnZkYz84_o2CHcAnaiLh-6">
          <mxGeometry relative="1" as="geometry" />
        </mxCell>
        <mxCell id="NnZkYz84_o2CHcAnaiLh-41" style="edgeStyle=none;shape=connector;rounded=0;orthogonalLoop=1;jettySize=auto;html=1;entryX=0;entryY=0;entryDx=0;entryDy=0;strokeColor=default;align=center;verticalAlign=middle;fontFamily=Helvetica;fontSize=11;fontColor=default;labelBackgroundColor=default;endArrow=none;endFill=0;" edge="1" parent="1" source="NnZkYz84_o2CHcAnaiLh-1" target="NnZkYz84_o2CHcAnaiLh-33">
          <mxGeometry relative="1" as="geometry" />
        </mxCell>
        <mxCell id="NnZkYz84_o2CHcAnaiLh-42" style="edgeStyle=none;shape=connector;rounded=0;orthogonalLoop=1;jettySize=auto;html=1;entryX=0.5;entryY=0;entryDx=0;entryDy=0;strokeColor=default;align=center;verticalAlign=middle;fontFamily=Helvetica;fontSize=11;fontColor=default;labelBackgroundColor=default;endArrow=none;endFill=0;" edge="1" parent="1" source="NnZkYz84_o2CHcAnaiLh-1" target="NnZkYz84_o2CHcAnaiLh-11">
          <mxGeometry relative="1" as="geometry" />
        </mxCell>
        <mxCell id="NnZkYz84_o2CHcAnaiLh-43" style="edgeStyle=none;shape=connector;rounded=0;orthogonalLoop=1;jettySize=auto;html=1;strokeColor=default;align=center;verticalAlign=middle;fontFamily=Helvetica;fontSize=11;fontColor=default;labelBackgroundColor=default;endArrow=none;endFill=0;" edge="1" parent="1" source="NnZkYz84_o2CHcAnaiLh-1" target="NnZkYz84_o2CHcAnaiLh-32">
          <mxGeometry relative="1" as="geometry" />
        </mxCell>
        <mxCell id="NnZkYz84_o2CHcAnaiLh-45" style="edgeStyle=none;shape=connector;rounded=0;orthogonalLoop=1;jettySize=auto;html=1;entryX=0;entryY=0.5;entryDx=0;entryDy=0;strokeColor=default;align=center;verticalAlign=middle;fontFamily=Helvetica;fontSize=11;fontColor=default;labelBackgroundColor=default;endArrow=none;endFill=0;" edge="1" parent="1" source="NnZkYz84_o2CHcAnaiLh-1" target="NnZkYz84_o2CHcAnaiLh-35">
          <mxGeometry relative="1" as="geometry" />
        </mxCell>
        <mxCell id="NnZkYz84_o2CHcAnaiLh-47" style="edgeStyle=none;shape=connector;rounded=0;orthogonalLoop=1;jettySize=auto;html=1;entryX=0;entryY=1;entryDx=0;entryDy=0;strokeColor=default;align=center;verticalAlign=middle;fontFamily=Helvetica;fontSize=11;fontColor=default;labelBackgroundColor=default;endArrow=none;endFill=0;" edge="1" parent="1" source="NnZkYz84_o2CHcAnaiLh-1" target="NnZkYz84_o2CHcAnaiLh-13">
          <mxGeometry relative="1" as="geometry" />
        </mxCell>
        <mxCell id="NnZkYz84_o2CHcAnaiLh-48" style="edgeStyle=none;shape=connector;rounded=0;orthogonalLoop=1;jettySize=auto;html=1;strokeColor=default;align=center;verticalAlign=middle;fontFamily=Helvetica;fontSize=11;fontColor=default;labelBackgroundColor=default;endArrow=none;endFill=0;" edge="1" parent="1" source="NnZkYz84_o2CHcAnaiLh-1" target="NnZkYz84_o2CHcAnaiLh-26">
          <mxGeometry relative="1" as="geometry" />
        </mxCell>
        <mxCell id="NnZkYz84_o2CHcAnaiLh-49" style="edgeStyle=none;shape=connector;rounded=0;orthogonalLoop=1;jettySize=auto;html=1;strokeColor=default;align=center;verticalAlign=middle;fontFamily=Helvetica;fontSize=11;fontColor=default;labelBackgroundColor=default;endArrow=none;endFill=0;" edge="1" parent="1" source="NnZkYz84_o2CHcAnaiLh-1" target="NnZkYz84_o2CHcAnaiLh-25">
          <mxGeometry relative="1" as="geometry" />
        </mxCell>
        <mxCell id="NnZkYz84_o2CHcAnaiLh-50" style="edgeStyle=none;shape=connector;rounded=0;orthogonalLoop=1;jettySize=auto;html=1;strokeColor=default;align=center;verticalAlign=middle;fontFamily=Helvetica;fontSize=11;fontColor=default;labelBackgroundColor=default;endArrow=none;endFill=0;" edge="1" parent="1" source="NnZkYz84_o2CHcAnaiLh-1" target="NnZkYz84_o2CHcAnaiLh-7">
          <mxGeometry relative="1" as="geometry" />
        </mxCell>
        <mxCell id="NnZkYz84_o2CHcAnaiLh-5" style="rounded=0;orthogonalLoop=1;jettySize=auto;html=1;entryX=0.064;entryY=0.271;entryDx=0;entryDy=0;endArrow=none;endFill=0;entryPerimeter=0;" edge="1" parent="1" source="NnZkYz84_o2CHcAnaiLh-2" target="NnZkYz84_o2CHcAnaiLh-4">
          <mxGeometry relative="1" as="geometry" />
        </mxCell>
        <mxCell id="NnZkYz84_o2CHcAnaiLh-4" value="&lt;div&gt;CU12&lt;br&gt;&lt;/div&gt;&lt;div&gt;Registrazione utente&lt;/div&gt;" style="ellipse;whiteSpace=wrap;html=1;" vertex="1" parent="1">
          <mxGeometry x="70" y="910" width="120" height="80" as="geometry" />
        </mxCell>
        <mxCell id="NnZkYz84_o2CHcAnaiLh-6" value="&lt;div&gt;CU13&lt;br&gt;&lt;/div&gt;&lt;div&gt;Login di un utente&lt;br&gt;&lt;/div&gt;" style="ellipse;whiteSpace=wrap;html=1;" vertex="1" parent="1">
          <mxGeometry x="380" y="250" width="120" height="80" as="geometry" />
        </mxCell>
        <mxCell id="NnZkYz84_o2CHcAnaiLh-7" value="&lt;div&gt;CU1&lt;br&gt;&lt;/div&gt;&lt;div&gt;Registrazione di un &lt;br&gt;&lt;/div&gt;&lt;div&gt;tipo di prodotto&lt;br&gt;&lt;/div&gt;" style="ellipse;whiteSpace=wrap;html=1;" vertex="1" parent="1">
          <mxGeometry x="450" y="730" width="120" height="80" as="geometry" />
        </mxCell>
        <mxCell id="NnZkYz84_o2CHcAnaiLh-21" style="rounded=0;orthogonalLoop=1;jettySize=auto;html=1;entryX=1;entryY=0.5;entryDx=0;entryDy=0;endArrow=open;endFill=0;dashed=1;" edge="1" parent="1" source="NnZkYz84_o2CHcAnaiLh-8" target="NnZkYz84_o2CHcAnaiLh-7">
          <mxGeometry relative="1" as="geometry" />
        </mxCell>
        <mxCell id="NnZkYz84_o2CHcAnaiLh-22" value="&amp;lt;&amp;lt;estende&amp;gt;&amp;gt;" style="edgeLabel;html=1;align=center;verticalAlign=middle;resizable=0;points=[];" vertex="1" connectable="0" parent="NnZkYz84_o2CHcAnaiLh-21">
          <mxGeometry x="-0.2231" y="1" relative="1" as="geometry">
            <mxPoint as="offset" />
          </mxGeometry>
        </mxCell>
        <mxCell id="NnZkYz84_o2CHcAnaiLh-8" value="&lt;div&gt;CU1a&lt;br&gt;&lt;/div&gt;&lt;div&gt;Creazione di una&lt;/div&gt;&lt;div&gt;ricetta&lt;br&gt;&lt;/div&gt;" style="ellipse;whiteSpace=wrap;html=1;" vertex="1" parent="1">
          <mxGeometry x="690" y="730" width="120" height="80" as="geometry" />
        </mxCell>
        <mxCell id="NnZkYz84_o2CHcAnaiLh-9" value="&lt;div&gt;CU1a&lt;br&gt;&lt;/div&gt;&lt;div&gt;Creazione di una&lt;/div&gt;&lt;div&gt;ricetta&lt;br&gt;&lt;/div&gt;" style="ellipse;whiteSpace=wrap;html=1;" vertex="1" parent="1">
          <mxGeometry x="224" y="210" width="120" height="80" as="geometry" />
        </mxCell>
        <mxCell id="NnZkYz84_o2CHcAnaiLh-10" value="&lt;div&gt;CU4&lt;br&gt;&lt;/div&gt;Tracciamento di un lotto (utente non registrato)" style="ellipse;whiteSpace=wrap;html=1;" vertex="1" parent="1">
          <mxGeometry x="70" y="1050" width="120" height="80" as="geometry" />
        </mxCell>
        <mxCell id="NnZkYz84_o2CHcAnaiLh-11" value="&lt;div&gt;CU2&lt;br&gt;&lt;/div&gt;&lt;div&gt;Registrazione &lt;br&gt;&lt;/div&gt;&lt;div&gt;lotto prodotto&lt;/div&gt;" style="ellipse;whiteSpace=wrap;html=1;" vertex="1" parent="1">
          <mxGeometry x="75" y="750" width="120" height="80" as="geometry" />
        </mxCell>
        <mxCell id="NnZkYz84_o2CHcAnaiLh-12" value="&lt;div&gt;CU3&lt;br&gt;&lt;/div&gt;Tracciamento di un lotto (utente registrato)" style="ellipse;whiteSpace=wrap;html=1;" vertex="1" parent="1">
          <mxGeometry x="50" y="200" width="120" height="80" as="geometry" />
        </mxCell>
        <mxCell id="NnZkYz84_o2CHcAnaiLh-13" value="&lt;div&gt;CU3&lt;br&gt;&lt;/div&gt;Tracciamento di un lotto (utente registrato)" style="ellipse;whiteSpace=wrap;html=1;" vertex="1" parent="1">
          <mxGeometry x="344" y="340" width="120" height="80" as="geometry" />
        </mxCell>
        <mxCell id="NnZkYz84_o2CHcAnaiLh-19" style="rounded=0;orthogonalLoop=1;jettySize=auto;html=1;entryX=1;entryY=0.5;entryDx=0;entryDy=0;dashed=1;endArrow=open;endFill=0;" edge="1" parent="1" source="NnZkYz84_o2CHcAnaiLh-17" target="NnZkYz84_o2CHcAnaiLh-13">
          <mxGeometry relative="1" as="geometry" />
        </mxCell>
        <mxCell id="NnZkYz84_o2CHcAnaiLh-20" value="&amp;lt;&amp;lt;estende&amp;gt;&amp;gt;" style="edgeLabel;html=1;align=center;verticalAlign=middle;resizable=0;points=[];" vertex="1" connectable="0" parent="NnZkYz84_o2CHcAnaiLh-19">
          <mxGeometry x="-0.1184" relative="1" as="geometry">
            <mxPoint as="offset" />
          </mxGeometry>
        </mxCell>
        <mxCell id="NnZkYz84_o2CHcAnaiLh-17" value="&lt;div&gt;CU3a&lt;br&gt;&lt;/div&gt;Notarizzazione di uno step di processo" style="ellipse;whiteSpace=wrap;html=1;" vertex="1" parent="1">
          <mxGeometry x="584" y="340" width="120" height="80" as="geometry" />
        </mxCell>
        <mxCell id="NnZkYz84_o2CHcAnaiLh-24" value="&lt;div&gt;CU6x&lt;br&gt;&lt;/div&gt;Traferimento" style="ellipse;whiteSpace=wrap;html=1;" vertex="1" parent="1">
          <mxGeometry x="690" y="620" width="120" height="80" as="geometry" />
        </mxCell>
        <mxCell id="NnZkYz84_o2CHcAnaiLh-28" style="rounded=0;orthogonalLoop=1;jettySize=auto;html=1;entryX=0;entryY=0.5;entryDx=0;entryDy=0;endArrow=open;endFill=0;dashed=1;" edge="1" parent="1" source="NnZkYz84_o2CHcAnaiLh-25" target="NnZkYz84_o2CHcAnaiLh-24">
          <mxGeometry relative="1" as="geometry" />
        </mxCell>
        <mxCell id="NnZkYz84_o2CHcAnaiLh-30" value="&amp;lt;&amp;lt;include&amp;gt;&amp;gt;" style="edgeLabel;html=1;align=center;verticalAlign=middle;resizable=0;points=[];" vertex="1" connectable="0" parent="NnZkYz84_o2CHcAnaiLh-28">
          <mxGeometry x="0.0219" y="3" relative="1" as="geometry">
            <mxPoint as="offset" />
          </mxGeometry>
        </mxCell>
        <mxCell id="NnZkYz84_o2CHcAnaiLh-25" value="&lt;div&gt;CU6&lt;br&gt;&lt;/div&gt;Trasferimento di un lotto con accettazione" style="ellipse;whiteSpace=wrap;html=1;" vertex="1" parent="1">
          <mxGeometry x="480" y="630" width="120" height="80" as="geometry" />
        </mxCell>
        <mxCell id="NnZkYz84_o2CHcAnaiLh-27" style="rounded=0;orthogonalLoop=1;jettySize=auto;html=1;endArrow=open;endFill=0;dashed=1;" edge="1" parent="1" source="NnZkYz84_o2CHcAnaiLh-26" target="NnZkYz84_o2CHcAnaiLh-24">
          <mxGeometry relative="1" as="geometry" />
        </mxCell>
        <mxCell id="NnZkYz84_o2CHcAnaiLh-29" value="&lt;div&gt;&amp;lt;&amp;lt;include&amp;gt;&amp;gt;&lt;/div&gt;" style="edgeLabel;html=1;align=center;verticalAlign=middle;resizable=0;points=[];" vertex="1" connectable="0" parent="NnZkYz84_o2CHcAnaiLh-27">
          <mxGeometry x="-0.2149" relative="1" as="geometry">
            <mxPoint as="offset" />
          </mxGeometry>
        </mxCell>
        <mxCell id="NnZkYz84_o2CHcAnaiLh-26" value="&lt;div&gt;CU5&lt;br&gt;&lt;/div&gt;Trasferimento di un lotto atomico" style="ellipse;whiteSpace=wrap;html=1;" vertex="1" parent="1">
          <mxGeometry x="500" y="520" width="120" height="80" as="geometry" />
        </mxCell>
        <mxCell id="NnZkYz84_o2CHcAnaiLh-31" value="&lt;div&gt;CU7&lt;br&gt;&lt;/div&gt;Accettazione di un trasferimento" style="ellipse;whiteSpace=wrap;html=1;" vertex="1" parent="1">
          <mxGeometry x="464" y="410" width="120" height="80" as="geometry" />
        </mxCell>
        <mxCell id="NnZkYz84_o2CHcAnaiLh-32" value="&lt;div&gt;CU8&lt;br&gt;&lt;/div&gt;Ritiro di un trasferimento" style="ellipse;whiteSpace=wrap;html=1;" vertex="1" parent="1">
          <mxGeometry x="280" y="680" width="120" height="80" as="geometry" />
        </mxCell>
        <mxCell id="NnZkYz84_o2CHcAnaiLh-33" value="&lt;div&gt;CU9&lt;br&gt;&lt;/div&gt;Rifiuto di un trasferimento" style="ellipse;whiteSpace=wrap;html=1;" vertex="1" parent="1">
          <mxGeometry x="210" y="780" width="120" height="80" as="geometry" />
        </mxCell>
        <mxCell id="NnZkYz84_o2CHcAnaiLh-34" value="&lt;div&gt;CU10&lt;br&gt;&lt;/div&gt;Notarizzazione di un documento" style="ellipse;whiteSpace=wrap;html=1;" vertex="1" parent="1">
          <mxGeometry x="354" y="800" width="120" height="80" as="geometry" />
        </mxCell>
        <mxCell id="NnZkYz84_o2CHcAnaiLh-35" value="&lt;div&gt;CU11&lt;br&gt;&lt;/div&gt;Avvio di una spedizione" style="ellipse;whiteSpace=wrap;html=1;" vertex="1" parent="1">
          <mxGeometry x="370" y="470" width="120" height="80" as="geometry" />
        </mxCell>
        <mxCell id="NnZkYz84_o2CHcAnaiLh-36" style="rounded=0;orthogonalLoop=1;jettySize=auto;html=1;entryX=0.017;entryY=0.392;entryDx=0;entryDy=0;endArrow=none;endFill=0;entryPerimeter=0;" edge="1" parent="1" source="NnZkYz84_o2CHcAnaiLh-3" target="NnZkYz84_o2CHcAnaiLh-10">
          <mxGeometry relative="1" as="geometry" />
        </mxCell>
        <mxCell id="NnZkYz84_o2CHcAnaiLh-39" style="edgeStyle=none;shape=connector;rounded=0;orthogonalLoop=1;jettySize=auto;html=1;entryX=0.008;entryY=0.425;entryDx=0;entryDy=0;entryPerimeter=0;strokeColor=default;align=center;verticalAlign=middle;fontFamily=Helvetica;fontSize=11;fontColor=default;labelBackgroundColor=default;endArrow=none;endFill=0;" edge="1" parent="1" source="NnZkYz84_o2CHcAnaiLh-1" target="NnZkYz84_o2CHcAnaiLh-31">
          <mxGeometry relative="1" as="geometry" />
        </mxCell>
        <mxCell id="NnZkYz84_o2CHcAnaiLh-44" style="edgeStyle=none;shape=connector;rounded=0;orthogonalLoop=1;jettySize=auto;html=1;entryX=0.05;entryY=0.25;entryDx=0;entryDy=0;entryPerimeter=0;strokeColor=default;align=center;verticalAlign=middle;fontFamily=Helvetica;fontSize=11;fontColor=default;labelBackgroundColor=default;endArrow=none;endFill=0;" edge="1" parent="1" source="NnZkYz84_o2CHcAnaiLh-1" target="NnZkYz84_o2CHcAnaiLh-34">
          <mxGeometry relative="1" as="geometry" />
        </mxCell>
        <mxCell id="NnZkYz84_o2CHcAnaiLh-1" value="&lt;div&gt;Utente&lt;/div&gt;&lt;div&gt;registrato&lt;br&gt;&lt;/div&gt;" style="shape=umlActor;verticalLabelPosition=middle;verticalAlign=middle;html=1;outlineConnect=0;labelPosition=left;align=right;textShadow=0;labelBorderColor=none;spacingRight=10;aspect=fixed;" vertex="1" parent="1">
          <mxGeometry x="-160" y="440" width="40" height="80" as="geometry" />
        </mxCell>
        <mxCell id="NnZkYz84_o2CHcAnaiLh-2" value="&lt;div&gt;Amministratore&lt;/div&gt;&lt;div&gt;di sistema&lt;br&gt;&lt;/div&gt;" style="shape=umlActor;verticalLabelPosition=middle;verticalAlign=middle;html=1;outlineConnect=0;labelPosition=left;align=right;textShadow=0;labelBorderColor=none;spacingRight=10;aspect=fixed;" vertex="1" parent="1">
          <mxGeometry x="-160" y="890" width="40" height="80" as="geometry" />
        </mxCell>
        <mxCell id="NnZkYz84_o2CHcAnaiLh-3" value="&lt;div&gt;Utente&lt;/div&gt;&lt;div&gt;non&amp;nbsp;&lt;/div&gt;&lt;div&gt;registrato&lt;br&gt;&lt;/div&gt;" style="shape=umlActor;verticalLabelPosition=middle;verticalAlign=middle;html=1;outlineConnect=0;labelPosition=left;align=right;textShadow=0;labelBorderColor=none;spacingRight=10;aspect=fixed;" vertex="1" parent="1">
          <mxGeometry x="-160" y="1040" width="40" height="80" as="geometry" />
        </mxCell>
      </root>
    </mxGraphModel>
  </diagram>
  <diagram id="lONIkBCJiTsm1CpHVYa0" name="schemaER">
    <mxGraphModel dx="1226" dy="1130" grid="1" gridSize="10" guides="1" tooltips="1" connect="1" arrows="1" fold="1" page="1" pageScale="1" pageWidth="827" pageHeight="1169" math="0" shadow="0">
      <root>
        <mxCell id="0" />
        <mxCell id="1" parent="0" />
        <mxCell id="j9gq0_a9UQ4ZJye6aSDm-1" value="&lt;div style=&quot;font-size: 22px;&quot;&gt;Prodotto&lt;/div&gt;" style="whiteSpace=wrap;html=1;fontFamily=Helvetica;fontSize=22;fontColor=default;labelBackgroundColor=default;aspect=fixed;" vertex="1" parent="1">
          <mxGeometry x="280" y="460" width="150" height="75" as="geometry" />
        </mxCell>
        <mxCell id="j9gq0_a9UQ4ZJye6aSDm-2" value="Tipo&lt;div style=&quot;font-size: 22px;&quot;&gt;Prodotto&lt;/div&gt;" style="whiteSpace=wrap;html=1;fontFamily=Helvetica;fontSize=22;fontColor=default;labelBackgroundColor=default;aspect=fixed;" vertex="1" parent="1">
          <mxGeometry x="290" y="260" width="150" height="75" as="geometry" />
        </mxCell>
        <mxCell id="j9gq0_a9UQ4ZJye6aSDm-3" value="Tipo&lt;div style=&quot;font-size: 22px;&quot;&gt;Prodotto&lt;/div&gt;" style="whiteSpace=wrap;html=1;fontFamily=Helvetica;fontSize=22;fontColor=default;labelBackgroundColor=default;aspect=fixed;" vertex="1" parent="1">
          <mxGeometry x="460" y="360" width="150" height="75" as="geometry" />
        </mxCell>
      </root>
    </mxGraphModel>
  </diagram>
</mxfile>
